M48
;DRILL file {kicad (after 2015-mar-04 BZR unknown)-product} date 3/30/2015 11:18:19 PM
;FORMAT={-:-/ absolute / inch / decimal}
FMAT,2
INCH,TZ
T1C0.016
T2C0.032
T3C0.039
T4C0.040
T5C0.059
T6C0.079
%
G90
G05
M72
T1
X1.1Y-4.1
X1.15Y-3.5
X1.5Y-5.95
X1.55Y-3.3
X1.55Y-3.35
X1.85Y-4.85
X2.25Y-2.3
X2.8Y-2.6
X3.25Y-1.8
X3.43Y-1.72
X4.11Y-1.54
X4.45Y-2.35
X4.7Y-2.35
X4.885Y-1.645
X5.Y-3.3
X5.Y-3.35
X5.05Y-4.3
X5.15Y-3.3
X5.15Y-3.35
X5.2375Y-1.87
X5.365Y-1.8625
X5.41Y-2.1
X5.606Y-1.685
X9.3Y-3.35
X9.45Y-4.85
T2
X1.05Y-5.9
X1.05Y-6.
X1.05Y-6.1
X1.05Y-6.2
X1.05Y-6.3
X1.05Y-6.4
X1.05Y-6.5
X1.05Y-6.6
X1.25Y-3.55
X1.25Y-3.65
X1.25Y-3.75
X1.25Y-3.85
X1.25Y-3.95
X1.25Y-4.05
X1.25Y-4.15
X1.25Y-4.25
X1.25Y-4.7
X1.25Y-4.8
X1.25Y-4.9
X1.25Y-5.
X1.25Y-5.1
X1.25Y-5.2
X1.25Y-5.3
X1.25Y-5.4
X1.35Y-5.9
X1.35Y-6.
X1.35Y-6.1
X1.35Y-6.2
X1.35Y-6.3
X1.35Y-6.4
X1.35Y-6.5
X1.35Y-6.6
X1.55Y-3.55
X1.55Y-3.65
X1.55Y-3.75
X1.55Y-3.85
X1.55Y-3.95
X1.55Y-4.05
X1.55Y-4.15
X1.55Y-4.25
X1.55Y-4.7
X1.55Y-4.8
X1.55Y-4.9
X1.55Y-5.
X1.55Y-5.1
X1.55Y-5.2
X1.55Y-5.3
X1.55Y-5.4
X1.75Y-1.9
X1.75Y-2.
X1.75Y-2.1
X1.75Y-2.2
X1.9Y-2.9
X1.9Y-3.
X1.95Y-4.1
X1.95Y-4.2
X2.05Y-1.9
X2.05Y-2.
X2.05Y-2.1
X2.05Y-2.2
X2.3Y-2.9
X2.3Y-3.
X2.55Y-4.1
X2.55Y-4.2
X2.7Y-2.9
X2.7Y-3.
X2.95Y-4.1
X2.95Y-4.2
X3.1Y-2.9
X3.1Y-3.
X3.15Y-2.35
X3.15Y-2.65
X3.25Y-2.35
X3.25Y-2.65
X3.35Y-2.35
X3.35Y-2.65
X3.35Y-4.1
X3.35Y-4.2
X3.45Y-2.35
X3.45Y-2.65
X3.5Y-2.9
X3.5Y-3.
X3.55Y-2.35
X3.55Y-2.65
X3.65Y-2.35
X3.65Y-2.65
X3.75Y-2.35
X3.75Y-2.65
X3.85Y-2.35
X3.85Y-2.65
X3.9Y-2.9
X3.9Y-3.
X3.95Y-4.1
X3.95Y-4.2
X4.3Y-2.9
X4.3Y-3.
X4.35Y-4.1
X4.35Y-4.2
X4.7Y-2.9
X4.7Y-3.
X4.75Y-4.1
X4.75Y-4.2
X5.35Y-4.1
X5.35Y-4.2
X5.7Y-2.9
X5.7Y-3.
X5.75Y-4.1
X5.75Y-4.2
X6.1Y-2.9
X6.1Y-3.
X6.15Y-4.1
X6.15Y-4.2
X6.7Y-2.9
X6.7Y-3.
X6.75Y-4.1
X6.75Y-4.2
X7.1Y-2.9
X7.1Y-3.
X7.15Y-4.1
X7.15Y-4.2
X7.25Y-2.35
X7.25Y-2.65
X7.35Y-2.35
X7.35Y-2.65
X7.45Y-2.35
X7.45Y-2.65
X7.5Y-2.9
X7.5Y-3.
X7.55Y-2.35
X7.55Y-2.65
X7.55Y-4.1
X7.55Y-4.2
X7.65Y-2.35
X7.65Y-2.65
X7.75Y-2.35
X7.75Y-2.65
X7.85Y-2.35
X7.85Y-2.65
X7.95Y-2.35
X7.95Y-2.65
X8.1Y-2.9
X8.1Y-3.
X8.15Y-4.1
X8.15Y-4.2
X8.5Y-2.9
X8.5Y-3.
X8.55Y-4.1
X8.55Y-4.2
X8.9Y-2.9
X8.9Y-3.
X8.95Y-4.1
X8.95Y-4.2
X9.35Y-3.7
X9.35Y-3.8
X9.35Y-3.9
X9.35Y-4.
X9.35Y-4.1
X9.35Y-4.2
X9.35Y-4.3
X9.35Y-4.4
X9.35Y-4.7
X9.35Y-4.8
X9.35Y-4.9
X9.35Y-5.
X9.35Y-5.1
X9.35Y-5.2
X9.35Y-5.3
X9.35Y-5.4
X9.65Y-3.7
X9.65Y-3.8
X9.65Y-3.9
X9.65Y-4.
X9.65Y-4.1
X9.65Y-4.2
X9.65Y-4.3
X9.65Y-4.4
X9.65Y-4.7
X9.65Y-4.8
X9.65Y-4.9
X9.65Y-5.
X9.65Y-5.1
X9.65Y-5.2
X9.65Y-5.3
X9.65Y-5.4
T3
X1.65Y-5.95
X1.65Y-6.35
X1.85Y-6.6
X1.9Y-3.15
X1.9Y-3.55
X1.95Y-4.35
X1.95Y-4.75
X2.25Y-6.6
X2.3Y-3.15
X2.3Y-3.55
X2.45Y-5.95
X2.45Y-6.35
X2.55Y-4.35
X2.55Y-4.75
X2.65Y-6.6
X2.7Y-3.15
X2.7Y-3.55
X2.95Y-4.35
X2.95Y-4.75
X3.05Y-6.6
X3.1Y-3.15
X3.1Y-3.55
X3.25Y-5.95
X3.25Y-6.35
X3.35Y-4.35
X3.35Y-4.75
X3.45Y-6.6
X3.5Y-3.15
X3.5Y-3.55
X3.85Y-6.6
X3.9Y-3.15
X3.9Y-3.55
X3.95Y-4.35
X3.95Y-4.75
X4.05Y-5.95
X4.05Y-6.35
X4.25Y-6.6
X4.3Y-3.15
X4.3Y-3.55
X4.35Y-4.35
X4.35Y-4.75
X4.65Y-6.6
X4.7Y-3.15
X4.7Y-3.55
X4.75Y-4.35
X4.75Y-4.75
X5.35Y-4.35
X5.35Y-4.75
X5.7Y-3.15
X5.7Y-3.55
X5.75Y-4.35
X5.75Y-4.75
X6.1Y-3.15
X6.1Y-3.55
X6.15Y-4.35
X6.15Y-4.75
X6.7Y-3.15
X6.7Y-3.55
X6.75Y-4.35
X6.75Y-4.75
X7.1Y-3.15
X7.1Y-3.55
X7.15Y-4.35
X7.15Y-4.75
X7.5Y-3.15
X7.5Y-3.55
X7.55Y-4.35
X7.55Y-4.75
X8.1Y-3.15
X8.1Y-3.55
X8.15Y-4.35
X8.15Y-4.75
X8.5Y-3.15
X8.5Y-3.55
X8.55Y-4.35
X8.55Y-4.75
X8.9Y-3.15
X8.9Y-3.55
X8.95Y-4.35
X8.95Y-4.75
X9.75Y-4.75
X9.75Y-5.15
T4
X3.05Y-2.
X3.15Y-2.
X3.25Y-2.
X3.35Y-2.
X3.45Y-2.
X3.55Y-2.
X3.65Y-2.
X3.75Y-2.
X3.85Y-2.
X3.95Y-2.
X4.05Y-2.
X4.15Y-2.
X4.25Y-2.
T5
X1.95Y-5.1
X1.95Y-5.2
X1.95Y-5.3
X2.55Y-5.1
X2.55Y-5.2
X2.55Y-5.3
X2.95Y-5.1
X2.95Y-5.2
X2.95Y-5.3
X3.35Y-5.1
X3.35Y-5.2
X3.35Y-5.3
X3.95Y-5.1
X3.95Y-5.2
X3.95Y-5.3
X4.35Y-5.1
X4.35Y-5.2
X4.35Y-5.3
X4.75Y-5.1
X4.75Y-5.2
X4.75Y-5.3
X5.35Y-5.1
X5.35Y-5.2
X5.35Y-5.3
X5.75Y-5.1
X5.75Y-5.2
X5.75Y-5.3
X6.15Y-5.1
X6.15Y-5.2
X6.15Y-5.3
X6.75Y-5.1
X6.75Y-5.2
X6.75Y-5.3
X7.15Y-5.1
X7.15Y-5.2
X7.15Y-5.3
X7.55Y-5.1
X7.55Y-5.2
X7.55Y-5.3
X8.15Y-5.1
X8.15Y-5.2
X8.15Y-5.3
X8.55Y-5.1
X8.55Y-5.2
X8.55Y-5.3
X8.95Y-5.1
X8.95Y-5.2
X8.95Y-5.3
T6
X1.85Y-5.95
X1.85Y-6.139
X1.85Y-6.324
X2.05Y-5.95
X2.05Y-6.139
X2.05Y-6.324
X2.65Y-5.95
X2.65Y-6.139
X2.65Y-6.324
X2.85Y-5.95
X2.85Y-6.139
X2.85Y-6.324
X3.45Y-5.95
X3.45Y-6.139
X3.45Y-6.324
X3.65Y-5.95
X3.65Y-6.139
X3.65Y-6.324
X4.25Y-5.95
X4.25Y-6.139
X4.25Y-6.324
X4.45Y-5.95
X4.45Y-6.139
X4.45Y-6.324
T0
M30
